<svg xmlns="http://www.w3.org/2000/svg" viewBox="0 0 43.371764 43.37177">
  <g transform="translate(-948.71 -341.028)">
    <rect ry="6.786" y="327.124" x="941.285" height="71.418" width="61.518" fill="#222"/>
    <path id="burger" d="M961.2 344.57c-4.957 0-8.948 3.99-8.948 8.948v18.39c0 4.957 3.99 8.948 8.948 8.948h18.39c4.957 0 8.947-3.99 8.947-8.947v-18.392c0-4.957-3.99-8.947-8.947-8.947H961.2zm1.57 3.098h15.25c4.11 0 7.42 3.31 7.42 7.42v15.252c0 4.11-3.31 7.418-7.42 7.418h-15.25c-4.11 0-7.42-3.307-7.42-7.418v-15.252c0-4.11 3.31-7.42 7.42-7.42zm-1.502 9.293c-.582 0-1.05.47-1.05 1.052 0 .582.468 1.05 1.05 1.05h18.475c.582 0 1.05-.468 1.05-1.05 0-.582-.468-1.05-1.05-1.05h-18.475zm0 5.865c-.582 0-1.05.468-1.05 1.05 0 .583.468 1.05 1.05 1.05h18.475c.582 0 1.05-.467 1.05-1.05 0-.582-.468-1.05-1.05-1.05h-18.475zm0 5.863c-.582 0-1.05.47-1.05 1.05 0 .583.468 1.052 1.05 1.052h18.475c.582 0 1.05-.47 1.05-1.05 0-.583-.468-1.052-1.05-1.052h-18.475z" fill="gray"/>
  </g>
    <style>
    #burger:hover{
        fill:aqua;
        }
    </style>
</svg>

