<svg id="git" xmlns="http://www.w3.org/2000/svg" viewBox="0 0 693.33331 682.66669">
  <defs>
    <clipPath id="a">
      <path d="M0 512h520V0H0z"/>
    </clipPath>
  </defs>
  <g clip-path="url(#a)" transform="matrix(1.0864 0 0 -1.0864 64.204 619.327)">
    <path id="git1" d="M488.6333 250.4355c0 126.271-102.363 228.633-228.633 228.633-126.271 0-228.634-102.362-228.634-228.633 0-100.224 64.493-185.375 154.237-216.245 5.471 3.948 11.772 8.818 11.772 17.024 0 12.575-.272 44.923-.272 44.923s-9.925-1.689-24.087-1.689c-35.687 0-46.971 22.646-52.342 35.322-6.99 16.507-16.054 24.259-25.684 30.456-5.914 3.809-7.273 8.293-.43 9.577 31.586 5.915 39.664-35.628 60.76-42.253 15.057-4.72 34.418-2.68 44.049 3.516 1.269 12.687 10.468 23.662 18.127 29.441-53.656 5.127-85.47 23.662-101.966 53.452l-1.767 3.336-4.146 9.464-1.224 3.392c-5.166 15.121-7.455 32.439-7.455 51.785 0 34.343 10.763 47.3 25.208 65.609-11.046 39.155 3.966 65.914 3.966 65.914s23.225 4.789 67.127-26.478c23.791 10.141 87.237 10.986 117.26 2.254 18.41 12.112 52.115 29.295 65.711 24.484 3.682-5.893 11.613-23.076 4.815-60.822 4.611-8.281 28.607-25.915 28.698-75.773-.385-18.387-2.312-33.915-5.881-47.041l-1.982-6.715s-1.133-3.166-2.368-6.186l-1.45-3.335c-15.918-34.77-48.57-47.751-101.331-53.148 17.096-10.704 22.002-24.134 22.002-60.472 0-36.337-.488-41.216-.374-49.576.098-7.387 6.007-12.698 11.321-16.72 90.13 30.655 154.973 116.006 154.973 216.504"/>
  </g>


<style>

	#git1{
	transform-origin:50% 50%;
	}
	#git:hover #git1{
	transform:scale(1.1);
	}
</style>

</svg>
