<svg id="insta" xmlns="http://www.w3.org/2000/svg" viewBox="0 0 107.21466 107.21587">
  <path id="insta1" d="M-.7e-7 53.6081383C-.7e-7 24.00133235 23.99999206-.8e-7 53.606658-.8e-7c29.60666592 0 53.60799865 24.00133273 53.60799865 53.60813866 0 29.6077299-24.00133273 53.6077293-53.60799866 53.6077293C23.99999205 107.2158676-.8e-7 83.2158682-.8e-7 53.6081383" fill="#4259ab"/>
  <path id="insta2" d="M75.33799345 38.670604c0 .80799997-.544 1.35199996-1.3533333 1.35199996h-5.43999987c-.8093333 0-1.35199996-.544-1.35199996-1.35199997v-5.4399932c0-.808.54266665-1.3520133 1.35199996-1.3520133h5.43999987c.8093333 0 1.3533333.54399998 1.3533333 1.3520133zM33.2299945 75.3372684c-.8093333 0-1.3533333-.54439998-1.3533333-1.3521333V50.88793703h5.70666652c-.28.82119998-.28 1.9117333-.28 2.71853327 0 8.97079976 7.33733316 16.30519824 16.3039996 16.30519824 8.96799978 0 16.3039996-7.33439848 16.3039996-16.30519825 0-.8068 0-1.8973333-.27733333-2.71853328h5.70399985v23.0971981c0 .8077333-.544 1.3521333-1.3533333 1.3521333zm20.37733282-32.59599784c5.98399985 0 10.86533306 4.8813332 10.86533306 10.86519973 0 5.98279984-4.8813332 10.86506638-10.86533306 10.86506638-5.9826665 0-10.86533306-4.88226654-10.86533306-10.8650664 0-5.9838665 4.88266655-10.86519972 10.86533306-10.86519972zm21.73066613-16.30267293H31.8766612c-2.99733326 0-5.43866653 2.43999994-5.43866653 5.43999986v43.4586709c0 2.99733327 2.44133327 5.43999987 5.43866653 5.43999987h43.46133225c2.9986666 0 5.43866653-2.4426666 5.43866653-5.43999986V31.8785975c0-2.99999993-2.43999994-5.43999987-5.43866653-5.43999987" fill="#f4f5f5"/>
  <style>
  #insta1,#insta2{
    transition:all 0.5s;
    transform-origin: 50% 50%;
  }
    #insta:hover #insta1{
  transform:scale(0);
    }
    #insta:hover #insta2{
      transform:scale(1.5);
    }
  </style>
</svg>
