 <svg  id="mainwork" xmlns="http://www.w3.org/2000/svg" width="15.542118mm" height="15.542118mm" viewBox="0 0 15.542118 15.542118">
  <g transform="translate(-95.127 -136.76)">
    <circle id="outerwork" cx="103.04223" cy="144.6754" r="7.2896852" fill="none" stroke="#8dd35f" stroke-width=".96274799" stroke-linecap="round" stroke-linejoin="round"/>
    <path id="innerwork" d="M99.409821 148.69791c-.06298-.063-.07644-.13245-.04042-.20811.01806-.0379.02274-.0669.01185-.0738-.02628-.0161-.02208-.15049.0057-.17166.01281-.01.252109-.0844.531719-.16553l.50839-.14752.00004-.71368.00005-.71366h-.594781c-.661346 0-.643744.004-.633194-.12464.0048-.0622.01242-.072.05714-.0773l.05131-.006v-.53536c0-.51515-.0019-.53623-.03737-.55866-.03631-.0226-.03737-.0434-.03737-.78707v-.76376l.04147-.029c.0473-.0331.167394-.0385.220975-.01.03479.0186.03612.0471.03612.79192 0 .75346-.000775.77324-.03765.79892-.0364.0255-.03746.0432-.03268.55615l.0048.52979 1.17372.005c.82918.004 1.18107.0109 1.19878.0256.0311.0258.0329.13156.003.16176-.0164.0164-.17501.0223-.59729.0223h-.57488l.005.72227.005.72229.13995.0405c.0769.0223.29945.0868.49444.14317.32545.0942.35596.10666.37233.15208.0121.0336.0108.0681-.004.10726-.0145.0385-.0158.0691-.004.0914.0352.0658.0206.14834-.0366.20541-.16087.16086-.40096-.0651-.25434-.23938l.0457-.0541-.45461-.10269-.45459-.10269-.45898.10381c-.423766.0959-.45617.106-.422275.13216.09021.0697.08572.22644-.0086.28804-.06852.045-.170366.0379-.223698-.0156zm2.725499-.0216c-.0263-.0263-.0293-.22623-.0293-1.92178v-1.89246h-.12687c-.0738 0-.13624-.01-.14926-.0223-.0123-.0123-.0224-.0697-.0224-.12771 0-.18494-.27057-.16709 2.53015-.16709 2.7948 0 2.54485-.0156 2.54485.15832 0 .14245-.0224.15887-.2159.15887h-.15727v1.90247c0 1.86182-.00077 1.90289-.0361 1.92179-.04.0214-.13128.0256-.17695.008-.0266-.0102-.0295-.17882-.0295-1.71654v-1.70522h-3.91821v1.70522c0 1.53772-.003 1.70632-.0295 1.71654-.0551.0213-.15428.0115-.18373-.018zm.36717-.15573l-.0793-.037v-3.13709l.0513.0126c.40432.0992.59509.29011.66733.66771.0636.33206.0538.9193-.0299 1.80194-.0444.46741-.076.56327-.21795.6615-.10527.0728-.27267.0858-.39143.0304zm-2.25321-2.29172c-.291878-.10401-.505236-.34323-.566691-.63538-.06374-.30313.0109-.99292.158153-1.46045.191638-.60862.657648-1.30986.968048-1.45671.15254-.0722.36238-.0755.50731-.008.0955.0444.24882.17856.24882.21755 0 .0202-.13802-.0802-.16063-.11682-.0262-.0423-.1693-.0892-.27377-.0895-.25575-.00085-.43182.17384-.43182.42873 0 .21226.10837.34501.48373.59258.10261.0676.19323.12863.20135.13544.008.007-.006.083-.0305.16928-.0957.33159-.11022.71368-.0399 1.05247.017.0821.0328.15113.0351.15342.004.004.63429.0611.67748.0611.0192 0 .0242.10191.0242.49396v.49398l-.0607-.0124c-.0792-.0163-1.15549-.0153-1.43201.00085-.18104.0108-.22918.008-.30811-.0206zm3.09189-1.76234c-.0123-.0123-.0224-.0497-.0224-.0832 0-.0695.0181-.0639-.32652-.0995-.27647-.0286-.60591-.0997-.87693-.18935-.57316-.18957-1.2321-.59759-1.33661-.82764-.0956-.21035.0183-.4601.23918-.52429.15604-.0454.24983-.0192.40708.11366.22273.18815.53608.36163.85828.47515.39216.13818.73572.19894 1.23143.21779.24801.01.33142.0192.38249.045.13247.0667.20523.18873.20523.34419 0 .12764-.0459.22499-.14367.30486l-.0709.0579.73168.00077c.70394.00077.7324.002.75099.0367.0271.0507.024.0871-.01.12118-.0259.0259-.14364.0293-1.01314.0293-.74031 0-.98936-.006-1.00621-.0224zm1.99734-.18343c-.0316-.0127-.0419-.032-.0418-.0781.00012-.0757.30811-1.90675.32545-1.93479.0191-.0309.11569-.0242.15026.0104.0178.0178.0266.0472.021.0699-.006.0216-.0782.45072-.1621.95355-.0838.50284-.16423.93314-.17868.95623-.0282.0451-.0483.0491-.11401.0228zm-3.74857-1.64196c-.55593-.0995-.92785-.64171-.82591-1.20406.05-.27545.26977-.57445.51843-.70512.30837-.16203.63431-.16609.94832-.0117.61387.30169.75414 1.11604.27889 1.61907-.22503.23818-.59574.35984-.91973.30187z" fill="#8dd35f" stroke-width=".01865808"/>
  </g>

  <style>
  #innerwork{
transition:300ms all;
transform-origin: 50% 50%;}
#mainwork{
}
      #outerwork{
          transition:300ms all;
          transform-origin: 50% 50%;
      }
 #mainwork:hover #outerwork{
 	transform: scale(0);
 }
#mainwork:hover #innerwork{
	transform: scale(1.3);
}
  </style>
</svg>
