<?xml version="1.0" encoding="UTF-8" standalone="no"?>
<svg
   xmlns:dc="http://purl.org/dc/elements/1.1/"
   xmlns:cc="http://creativecommons.org/ns#"
   xmlns:rdf="http://www.w3.org/1999/02/22-rdf-syntax-ns#"
   xmlns:svg="http://www.w3.org/2000/svg"
   xmlns="http://www.w3.org/2000/svg"
   xmlns:sodipodi="http://sodipodi.sourceforge.net/DTD/sodipodi-0.dtd"
   xmlns:inkscape="http://www.inkscape.org/namespaces/inkscape"
   id="svg4561"
   xml:space="preserve"
   width="313.25235"
   viewBox="0 0 313.25235 313.25235"
   version="1.1"
   height="313.25235"
   sodipodi:docname="jscolor.svg"
   inkscape:version="0.92.1 unknown"><sodipodi:namedview
     pagecolor="#ffffff"
     bordercolor="#666666"
     borderopacity="1"
     objecttolerance="10"
     gridtolerance="10"
     guidetolerance="10"
     inkscape:pageopacity="0"
     inkscape:pageshadow="2"
     inkscape:window-width="1600"
     inkscape:window-height="821"
     id="namedview10"
     showgrid="false"
     inkscape:zoom="0.75338621"
     inkscape:cx="-317.23437"
     inkscape:cy="156.62617"
     inkscape:window-x="0"
     inkscape:window-y="24"
     inkscape:window-maximized="1"
     inkscape:current-layer="svg4561" /><metadata
     id="metadata4567"><rdf:RDF><cc:Work
         rdf:about=""><dc:format>image/svg+xml</dc:format><dc:type
           rdf:resource="http://purl.org/dc/dcmitype/StillImage" /><dc:title /></cc:Work></rdf:RDF></metadata><defs
     id="defs4565" /><rect
     y="32.526878"
     x="32.526878"
     height="248.19859"
     width="248.19859"
     id="rect4571"
     style="opacity:1;fill:#ffcc00;fill-opacity:0.99541285;stroke:#ffffff;stroke-width:1.34141374;stroke-linecap:round;stroke-linejoin:round;stroke-miterlimit:4;stroke-dasharray:none;stroke-dashoffset:0;stroke-opacity:1" /><g
     transform="matrix(0.2565764,0,0,0.2565764,91.176875,91.364564)"
     id="Layer_1"><g
       id="g4558"><path
         id="path4554"
         d="m 112.155,67.644 h 84.212 v 236.019 c 0,106.375 -50.969,143.497 -132.414,143.497 -19.944,0 -45.429,-3.324 -62.052,-8.864 L 11.32,370.15 c 11.635,3.878 26.594,6.648 43.214,6.648 35.458,0 57.621,-16.068 57.621,-73.687 z"
         inkscape:connector-curvature="0" /><path
         id="path4556"
         d="m 269.484,354.634 c 22.161,11.635 57.62,23.27 93.632,23.27 38.783,0 59.282,-16.066 59.282,-40.998 0,-22.715 -17.729,-36.565 -62.606,-52.079 -62.053,-22.162 -103.05,-56.512 -103.05,-111.36 0,-63.715 53.741,-111.917 141.278,-111.917 42.662,0 73.132,8.313 95.295,18.838 l -18.839,67.592 c -14.404,-7.201 -41.553,-17.729 -77.562,-17.729 -36.567,0 -54.297,17.175 -54.297,36.013 0,23.824 20.499,34.349 69.256,53.188 65.928,24.378 96.4,58.728 96.4,111.915 0,62.606 -47.647,115.794 -150.143,115.794 -42.662,0 -84.77,-11.636 -105.82,-23.27 z"
         inkscape:connector-curvature="0" /></g></g></svg>