<?xml version="1.0" encoding="UTF-8" standalone="no"?>
<svg
   xmlns:dc="http://purl.org/dc/elements/1.1/"
   xmlns:cc="http://creativecommons.org/ns#"
   xmlns:rdf="http://www.w3.org/1999/02/22-rdf-syntax-ns#"
   xmlns:svg="http://www.w3.org/2000/svg"
   xmlns="http://www.w3.org/2000/svg"
   xmlns:sodipodi="http://sodipodi.sourceforge.net/DTD/sodipodi-0.dtd"
   xmlns:inkscape="http://www.inkscape.org/namespaces/inkscape"
   id="Layer_1"
   viewBox="-23 147.1 547.8 547.8"
   version="1.1"
   sodipodi:docname="logo-sass-color.svg"
   inkscape:version="0.92.1 unknown">
  <metadata
     id="metadata11">
    <rdf:RDF>
      <cc:Work
         rdf:about="">
        <dc:format>image/svg+xml</dc:format>
        <dc:type
           rdf:resource="http://purl.org/dc/dcmitype/StillImage" />
      </cc:Work>
    </rdf:RDF>
  </metadata>
  <defs
     id="defs9" />
  <sodipodi:namedview
     pagecolor="#ffffff"
     bordercolor="#666666"
     borderopacity="1"
     objecttolerance="10"
     gridtolerance="10"
     guidetolerance="10"
     inkscape:pageopacity="0"
     inkscape:pageshadow="2"
     inkscape:window-width="1600"
     inkscape:window-height="821"
     id="namedview7"
     showgrid="false"
     inkscape:zoom="0.43081418"
     inkscape:cx="-554.76355"
     inkscape:cy="273.89999"
     inkscape:window-x="0"
     inkscape:window-y="24"
     inkscape:window-maximized="1"
     inkscape:current-layer="Layer_1" />
  <style
     id="style2">.st0{fill:#c96889}</style>
  <path
     class="st0"
     d="m 412.74533,446.13949 c -15.64462,0.0819 -29.24152,3.84972 -40.62687,9.41954 -4.17736,-8.27282 -8.35472,-15.64462 -9.09191,-21.05062 -0.81909,-6.307 -1.80199,-10.15672 -0.81909,-17.69235 0.98292,-7.53563 5.406,-18.2657 5.3241,-19.0848 -0.0819,-0.81909 -0.98292,-4.66881 -9.99291,-4.75073 -9.00999,-0.0819 -16.79135,1.72009 -17.69234,4.09545 -0.901,2.37537 -2.62109,7.78136 -3.76782,13.35118 -1.55627,8.1909 -18.01998,37.43242 -27.43952,52.7494 -3.03063,-5.97936 -5.65173,-11.22154 -6.22509,-15.39889 -0.81908,-6.307 -1.80199,-10.15672 -0.81908,-17.69235 0.9829,-7.53562 5.40599,-18.26571 5.32408,-19.0848 -0.0819,-0.81909 -0.9829,-4.66882 -9.99289,-4.75072 -9.01,-0.0819 -16.79136,1.72009 -17.69236,4.09544 -0.901,2.37537 -1.8839,7.94518 -3.76781,13.35117 -1.8839,5.406 -23.75361,54.22377 -29.48725,66.83777 -2.94872,6.4708 -5.4879,11.63107 -7.2899,15.15316 0,0 -0.0819,0.24573 -0.32763,0.65527 -1.55627,3.03064 -2.45728,4.66882 -2.45728,4.66882 v 0.0819 c -1.22863,2.21154 -2.53917,4.25927 -3.19445,4.25927 -0.49144,0 -1.39244,-5.89745 0.16383,-13.92454 3.27635,-16.95516 11.05771,-43.32986 10.9758,-44.23087 0,-0.49144 1.47436,-5.07835 -5.07836,-7.45371 -6.3889,-2.37537 -8.68236,1.55627 -9.25572,1.55627 -0.57336,0 -0.9829,1.39246 -0.9829,1.39246 0,0 7.12609,-29.65107 -13.5969,-29.65107 -12.94162,0 -30.79779,14.17026 -39.64396,26.94806 -5.56982,3.03064 -17.44663,9.50145 -30.14252,16.46371 -4.83263,2.70301 -9.82909,5.406 -14.4979,7.94518 -0.32763,-0.32763 -0.65527,-0.73718 -0.9829,-1.06482 -25.06416,-26.78424 -71.424662,-45.70523 -69.458846,-81.66328 0.737181,-13.10545 5.242176,-47.50723 89.035106,-89.28082 68.96738,-33.99225 123.84642,-24.57271 133.34787,-3.68591 13.59689,29.81488 -29.40534,85.18537 -100.66618,93.21246 -27.19379,3.03063 -41.44597,-7.45372 -45.04996,-11.38536 -3.76781,-4.09545 -4.34117,-4.34118 -5.73363,-3.52208 -2.29345,1.22863 -0.81909,4.91454 0,7.04417 2.12963,5.56982 10.8939,15.3989 25.71943,20.23152 13.10544,4.25927 44.96805,6.63463 83.54719,-8.2728 43.16605,-16.70944 76.91257,-63.15186 67.00158,-102.05863 -9.911,-39.48015 -75.4382,-52.50368 -137.44333,-30.47016 -36.85905,13.10545 -76.830647,33.74652 -105.580717,60.61267 -34.156058,31.94451 -39.562053,59.71167 -37.35051,71.34276 7.945175,41.28214 64.871936,68.14829 87.642647,88.05218 -1.14673,0.65528 -2.21155,1.22864 -3.11255,1.72009 -11.38535,5.65173 -54.797125,28.34052 -65.609114,52.33986 -12.286352,27.19379 1.965816,46.68814 11.385353,49.30923 29.241519,8.10899 59.302131,-6.47081 75.438201,-30.55207 16.13607,-24.08124 14.17026,-55.37048 6.79845,-69.70457 -0.0819,-0.16381 -0.16382,-0.32763 -0.32764,-0.49145 2.94872,-1.72009 5.97936,-3.52209 8.92809,-5.24218 5.81553,-3.44018 11.54917,-6.63463 16.46371,-9.25572 -2.78491,7.61755 -4.83264,16.70944 -5.81554,29.81488 -1.22863,15.3989 5.07835,35.3847 13.35117,43.24797 3.6859,3.44018 8.02708,3.52208 10.81198,3.52208 9.66527,0 14.00645,-8.02709 18.83908,-17.52852 5.89745,-11.63109 11.22153,-25.14607 11.22153,-25.14607 0,0 -6.63463,36.53142 11.38536,36.53142 6.55271,0 13.18734,-8.51855 16.13608,-12.85972 v 0.0819 c 0,0 0.16381,-0.24573 0.49144,-0.81909 0.65528,-1.06482 1.06482,-1.72009 1.06482,-1.72009 v -0.16383 c 2.62109,-4.58689 8.51854,-14.98934 17.28281,-32.27214 11.30344,-22.27925 22.19734,-50.12832 22.19734,-50.12832 0,0 0.98291,6.79845 4.34118,18.10189 1.96581,6.63463 6.06127,13.92453 9.33762,20.96872 -2.62108,3.68589 -4.25927,5.73362 -4.25927,5.73362 l 0.0819,0.0819 c -2.12963,2.7849 -4.42308,5.81554 -6.96226,8.76426 -8.92808,10.64817 -19.57625,22.85261 -21.05062,26.3747 -1.72008,4.17736 -1.31054,7.20799 1.96582,9.66527 2.37537,1.80199 6.63463,2.04772 10.97581,1.80199 8.02708,-0.57336 13.67881,-2.53918 16.46371,-3.76781 4.34118,-1.55628 9.41954,-3.93164 14.17026,-7.45372 8.76427,-6.47081 14.08835,-15.72653 13.59689,-27.93098 -0.24572,-6.71654 -2.45726,-13.43307 -5.16027,-19.74007 0.8191,-1.14673 1.55628,-2.29345 2.37538,-3.44018 13.84262,-20.23153 24.5727,-42.42887 24.5727,-42.42887 0,0 0.9829,6.79845 4.34118,18.1019 1.63817,5.73363 4.99644,11.95871 7.94517,18.01998 -13.02354,10.56626 -21.05062,22.85261 -23.91744,30.8797 -5.16026,14.90744 -1.14673,21.62398 6.47082,23.18024 3.44018,0.73719 8.35472,-0.90099 11.95871,-2.45726 4.58691,-1.47436 10.07481,-4.01354 15.15318,-7.78136 8.76426,-6.47081 17.20088,-15.48081 16.70942,-27.68525 -0.24571,-5.56981 -1.72008,-11.05771 -3.76781,-16.38179 11.05773,-4.58691 25.30989,-7.12609 43.49369,-4.99646 38.98869,4.58691 46.68813,28.91388 45.21377,39.15251 -1.47436,10.23863 -9.66525,15.80844 -12.36826,17.52853 -2.70299,1.72009 -3.60399,2.29345 -3.35826,3.52209 0.32763,1.802 1.63818,1.72008 3.93162,1.39245 3.19445,-0.57337 20.47726,-8.27281 21.21444,-27.11188 1.14673,-24.08126 -21.7878,-50.37405 -62.33276,-50.12832 z m -300.7699,101.40336 c -12.941623,14.08835 -30.961602,19.41243 -38.742963,14.90744 -8.35472,-4.83263 -5.078359,-25.63752 10.811989,-40.54497 9.665259,-9.09189 22.115444,-17.52852 30.388244,-22.68879 1.88391,-1.14673 4.66881,-2.78491 8.02708,-4.83263 0.57337,-0.32764 0.901,-0.49146 0.901,-0.49146 l 1.96582,-1.22863 c 5.81554,21.29634 0.24573,40.05351 -13.35117,54.87904 z m 94.19537,-64.05286 c -4.505,10.97581 -13.92454,39.07061 -19.65816,37.51433 -4.91454,-1.31053 -7.94518,-22.60688 -0.98292,-43.6575 3.52209,-10.56626 10.97581,-23.18025 15.31699,-28.09479 7.04417,-7.86326 14.82553,-10.48435 16.70944,-7.2899 2.37536,4.17736 -8.60045,34.64751 -11.38535,41.52786 z m 77.73164,37.1867 c -1.8839,0.9829 -3.68589,1.63818 -4.50498,1.14673 -0.57337,-0.32764 0.81909,-1.63819 0.81909,-1.63819 0,0 9.74716,-10.48435 13.59689,-15.23507 2.21154,-2.78491 4.83263,-6.06126 7.61754,-9.74717 v 1.06482 c 0,12.53207 -12.12254,20.9687 -17.52854,24.40888 z m 59.95741,-13.6788 c -1.39246,-0.98292 -1.14673,-4.25927 3.52208,-14.4979 1.802,-4.01354 6.06127,-10.73009 13.35117,-17.20089 0.81909,2.62108 1.39246,5.16026 1.31055,7.53562 -0.0819,15.80845 -11.38536,21.70589 -18.1838,24.16317 z"
     id="path4"
     inkscape:connector-curvature="0"
     style="fill:#c96889;stroke-width:0.81909013" />
</svg>
