<svg id="Layer_1" xmlns="http://www.w3.org/2000/svg" viewBox="-188.8 164.9 512 512"><style>.st0{fill:#e44d26}.st1{fill:#f16529}.st2{fill:#ebebeb}.st3{fill:#fff}</style><title>HTML5 Logo</title><path class="st0" d="M-81.3 635.8l-33-370.3h362.8l-33.1 370.2-148.5 41.2z"/><path class="st1" d="M67.1 645.4l120-33.3 28.3-316.3H67.1z"/><path class="st2" d="M67.1 433.1H7l-4.1-46.5h64.2v-45.4H-46.8l1.1 12.2 11.2 125.1H67.1zM67.1 551l-.2.1-50.6-13.7-3.2-36.2h-45.6l6.4 71.3 93 25.8h.2z"/><path d="M-80.5 164.9h23.1v22.8h21.1v-22.8h23.1v69h-23.1v-23.1h-21.1v23.1h-23.1v-69zM17.1 187.8H-3.2v-22.9h63.7v22.9H40.2v46.1H17.1v-46.1zM70.6 164.9h24.1l14.8 24.3 14.8-24.3h24.1v69h-23v-34.2l-15.9 24.5h-.4l-15.9-24.5v34.2H70.6v-69zM159.9 164.9H183v46.2h32.5v22.8H160v-69h-.1z"/><path class="st3" d="M66.9 433.1v45.4h56l-5.3 58.9-50.7 13.7v47.2l93.1-25.8.8-7.6 10.6-119.6 1.1-12.2h-12.1zM66.9 341.2v45.4H176.6l.9-10.2 2.1-23 1.2-12.2z"/></svg>