<?xml version="1.0" encoding="UTF-8" standalone="no"?>
<svg
   xmlns:dc="http://purl.org/dc/elements/1.1/"
   xmlns:cc="http://creativecommons.org/ns#"
   xmlns:rdf="http://www.w3.org/1999/02/22-rdf-syntax-ns#"
   xmlns:svg="http://www.w3.org/2000/svg"
   xmlns="http://www.w3.org/2000/svg"
   xmlns:sodipodi="http://sodipodi.sourceforge.net/DTD/sodipodi-0.dtd"
   xmlns:inkscape="http://www.inkscape.org/namespaces/inkscape"
   id="Layer_1"
   viewBox="-103.3 197.2 447.7 447.7"
   version="1.1"
   sodipodi:docname="logo-jquery-color.svg"
   inkscape:version="0.92.1 unknown">
  <metadata
     id="metadata20">
    <rdf:RDF>
      <cc:Work
         rdf:about="">
        <dc:format>image/svg+xml</dc:format>
        <dc:type
           rdf:resource="http://purl.org/dc/dcmitype/StillImage" />
      </cc:Work>
    </rdf:RDF>
  </metadata>
  <defs
     id="defs18" />
  <sodipodi:namedview
     pagecolor="#ffffff"
     bordercolor="#666666"
     borderopacity="1"
     objecttolerance="10"
     gridtolerance="10"
     guidetolerance="10"
     inkscape:pageopacity="0"
     inkscape:pageshadow="2"
     inkscape:window-width="1600"
     inkscape:window-height="821"
     id="namedview16"
     showgrid="false"
     inkscape:zoom="0.52713869"
     inkscape:cx="-453.39111"
     inkscape:cy="223.85001"
     inkscape:window-x="0"
     inkscape:window-y="24"
     inkscape:window-maximized="1"
     inkscape:current-layer="Layer_1" />
  <style
     id="style2">.st0{fill:#136bb0}</style>
  <g
     id="XMLID_2_"
     transform="matrix(0.79073487,0,0,0.79073487,25.237376,88.261904)">
    <path
       d="m 54.3,553.3 c 2,14.8 -5.8,31.2 -11.2,45.4 5.5,0.5 10.3,-0.1 10.7,0.3 0.4,0.5 -3.7,17 -5.1,17 -4.4,0.1 -18.8,0.2 -24.8,0.2 -19.7,0 -38.1,1.3 -47.5,-8.5 -3.8,-4 -6.4,-10.8 -7.1,-15.6 -1.1,-8 0.3,-16.8 2.1,-24.1 1.7,-6.6 3.8,-12.8 7.1,-18.4 8.3,-14.4 22.6,-25.1 46.8,-22.7 4.7,0.5 11.4,2.5 15.6,5 0.3,0.2 1.3,1 1.5,1.1 5.7,3.7 10.8,12.3 11.9,20.3 z m -24.8,26.2 c 1.9,-6.6 4.6,-13.8 4.3,-19.8 -0.4,-6.4 -5.7,-12.2 -9.2,-13.5 -10.4,-3.7 -20.2,1.5 -24.1,5.7 -5,5.4 -6.7,11.8 -8.5,20.5 -1.3,6.5 -2.4,13.4 0,18.4 4.3,9 17.6,7 31.9,7.1 2.1,-5.7 3.8,-12.1 5.6,-18.4 z m -62.2,-33.9 c -1.2,5.4 -2.4,11.6 -3.6,16.9 h -19.8 c 1.5,-5.9 2.7,-11.8 4.3,-17 6.2,0 12.1,0.1 19.1,0.1 z m -24.2,21.8 h 19.1 c -2.5,13.8 -7.5,36.2 -11.3,51.7 -2.4,9.7 -4.1,16.8 -10.6,22 -0.6,0.5 -0.9,0.2 -1.4,0.7 -1.2,1.2 -6.8,2.5 -9.9,2.8 -5,0.5 -10.7,0.1 -16.9,-0.1 1.6,-5.9 3.5,-13 4.9,-18.4 15.1,1.8 15.5,-12.5 18.4,-26.2 1.6,-7.8 6.7,-29.3 7.7,-32.5 z m 364.2,-32 21.8,0.1 c 0,0 -40.6,55 -43.9,59.5 -1.1,1.5 -2.7,3 -3.5,5 -2.1,4.9 -4.3,15.6 -4.3,15.6 l -20,0.1 c 0,0 3.1,-11.2 3,-17.1 -0.1,-5.2 -2.8,-10.4 -4.3,-15.6 -1.5,-5.3 -3.5,-15.6 -3.5,-15.6 h 20.5 l 2.8,11.3 z M 197.6,559 c 2.3,8.5 -2.1,28.3 -2.1,28.3 0,0 -23.3,-0.4 -36.1,0 -4,0.1 -8.7,-0.4 -9.9,1.4 -1.7,2.6 0.6,6.6 2.5,8.3 2.2,1.9 6.5,2.2 8.1,2.4 10.4,1.3 32.1,0.3 32.1,0.3 l -3.8,16.7 c 0,0 -30.7,1.5 -46,-2.1 -3,-0.7 -5.9,-2.2 -7.8,-4.3 -0.5,-0.6 -1,-1.3 -1.5,-2 -0.4,-0.5 -1.6,-2.3 -2.1,-3.7 -3.5,-9.3 0.4,-27.2 4.3,-36.8 0.4,-1.1 1,-2.5 1.6,-3.7 0.7,-1.5 1.4,-3.2 1.9,-4.1 0.4,-0.6 0.9,-1 1.3,-1.6 0.5,-0.7 1,-1.4 1.5,-1.9 1.4,-1.6 3,-2.8 5,-4.3 6.4,-4.8 18,-8.5 31.9,-7.1 5.2,0.5 13.1,2.4 17,7.8 1,1.4 1.5,4.3 2.1,6.4 z m -17.4,13.6 c 0,0 0.6,-3.4 -1.9,-7.3 -2.2,-3.3 -4.1,-4.1 -9.8,-4.3 -16,-0.5 -15.7,11.4 -15.7,11.4 z"
       id="path4"
       inkscape:connector-curvature="0" />
    <path
       d="m 266,547 c 4,2.4 6.5,15.8 6.5,15.8 0,0 -21.1,0.3 -32.6,0.3 H 230 l -12,52.4 h -18.4 c 0,0 11.5,-57 14.2,-67.3 0.9,-3.3 6,-2.8 14.7,-2.8 h 13.8 c 8.8,0.1 19.3,-1 23.7,1.6 z m -152.9,-1.5 17.9,-0.1 c 0,0 -10,47.2 -15,70.2 H 95.5 c -14.4,0 -27.1,1.8 -32.6,-8.5 -5.3,-10 -0.2,-26.4 2.1,-37.5 1.7,-7.9 5.2,-24 5.2,-24 l 18.5,-0.2 c 0,0 -5.2,25.1 -7.4,37.6 -0.8,4.5 -2.4,8.7 -0.7,12 1.6,3.2 3.8,3.4 10.6,3.5 h 9.2 z"
       id="path6"
       inkscape:connector-curvature="0" />
  </g>
  <path
     class="st0"
     d="m 138.94505,306.10936 c 11.22843,18.02876 32.65735,33.92253 66.10543,26.80591 8.46087,-1.81869 27.59665,-16.21006 30.91773,-23.80112 -28.70367,19.53116 -46.4952,12.96806 -54.95606,10.51678 -1.81869,-0.55352 -6.16773,-2.45128 -10.12141,-4.90256 -8.85624,-5.377 -13.28435,-7.7492 -20.24282,-17.8706 -3.79552,-5.53515 -7.59105,-14.31231 -8.85622,-19.37301 -2.05592,-8.30272 -1.50241,-21.11262 2.45127,-32.10383 -12.96805,11.62379 -15.02396,34.0016 -10.59584,48.78834 0.55351,1.89776 3.63738,9.25159 5.29792,11.94009 z"
     id="path9"
     inkscape:connector-curvature="0"
     style="fill:#136bb0;stroke-width:0.79073483" />
  <path
     class="st0"
     d="m 148.11757,401.63013 c 44.91375,6.00959 78.4409,-12.88897 89.98563,-42.22523 -13.20527,13.99599 -35.58307,24.03833 -56.93291,23.88018 -47.83946,-0.31628 -101.530356,-43.17412 -95.520771,-102.8746 0.553515,-5.13978 2.609425,-13.20527 8.065495,-23.64297 -15.814697,20.00559 -25.461662,36.45288 -22.773164,64.04952 3.716454,37.95527 39.53675,75.7524 77.17572,80.8131 z"
     id="path11"
     inkscape:connector-curvature="0"
     style="fill:#136bb0;stroke-width:0.79073483" />
  <path
     class="st0"
     d="m 26.107184,293.14131 1.107028,-3.5583 c -0.632588,0 4.744409,-8.30273 4.190895,-8.30273 -39.4576694,38.11343 -35.978436,89.1949 -17.079873,125.885 13.205272,25.61981 37.401759,49.5 66.105435,62.46805 13.284345,5.93051 33.685301,11.46566 55.114221,10.99122 45.78355,-0.94889 77.88738,-22.61502 95.99521,-57.88179 l 1.02795,-2.76758 C 216.59522,436.10617 190.58004,447.25554 170.1,449.39052 85.175078,458.0886 -2.2801979,381.94084 26.107184,293.14131 Z"
     id="path13"
     inkscape:connector-curvature="0"
     style="fill:#136bb0;stroke-width:0.79073483" />
</svg>
