<svg id="Layer_1" xmlns="http://www.w3.org/2000/svg" viewBox="0 0 469.7 469.7"><style>.st0{fill:#2062af}.st1{fill:#3c9cd7}.st2{fill:#fff}.st3{fill:url(#SVGID_1_)}.st4{fill:url(#SVGID_2_)}.st5{fill:url(#SVGID_3_)}.st6{fill:#e1e0de}.st7{fill:url(#SVGID_4_)}.st8{fill:#e5e5e3}</style><path class="st0" d="M371.1 433l-136.3 36.7L98.6 433 67.2 92.5h335.3z"/><path class="st1" d="M234.8 120.1v320.3l.3.1 110.3-29.7 25.4-290.7z"/><path d="M157.5 42.4V22.2h29.6V0h-51.7v62.7h51.7V42.4zM240.3 22.2H261V0h-51.8v22.2c6.9 6.9 10.5 10.2 20.5 20.3h-20.5v20.2H261V42.4l-20.7-20.2zM313.7 22.2h20.7V0h-51.8v22.2c6.9 6.9 10.5 10.2 20.6 20.3h-20.6v20.2h51.8V42.4l-20.7-20.2z"/><g><path class="st2" d="M234.7 205.2l-97.5 40.6 3.3 40.2 94.2-40.3L335 202.8l4.1-41.1z"/><linearGradient id="SVGID_1_" gradientUnits="userSpaceOnUse" x1="185.95" y1="-156.27" x2="185.95" y2="-237.07" gradientTransform="translate(0 442.27)"><stop offset=".387" stop-color="#d1d3d4" stop-opacity="0"/><stop offset="1" stop-color="#d1d3d4"/></linearGradient><path class="st3" d="M137.2 245.8l3.3 40.2 94.2-40.3v-40.5z"/><linearGradient id="SVGID_2_" gradientUnits="userSpaceOnUse" x1="286.9" y1="-196.57" x2="286.9" y2="-280.57" gradientTransform="translate(0 442.27)"><stop offset=".387" stop-color="#d1d3d4" stop-opacity="0"/><stop offset="1" stop-color="#d1d3d4"/></linearGradient><path class="st4" d="M339.1 161.7l-104.4 43.5v40.5L335 202.8z"/><linearGradient id="SVGID_3_" gradientUnits="userSpaceOnUse" x1="137.4" y1="-120.22" x2="331.4" y2="-120.22" gradientTransform="translate(0 442.27)"><stop offset="0" stop-color="#e8e7e5"/><stop offset="1" stop-color="#fff"/></linearGradient><path class="st5" d="M137.4 245.8l3.2 40.2 144.6.5-3.2 53.6-47.6 13.4-45.7-11.6-2.8-33.3h-42.5l5.5 64.3 86 25.4 85.5-25 11-127.5z"/><path class="st6" d="M234.7 245.8h-97.5l3.3 40.2 94.2.3zM234.7 353.3l-.4.2-45.8-11.6-2.8-33.3h-42.5l5.6 64.3 85.9 25.4z"/><linearGradient id="SVGID_4_" gradientUnits="userSpaceOnUse" x1="128.5" y1="-260.02" x2="339.1" y2="-260.02" gradientTransform="translate(0 442.27)"><stop offset="0" stop-color="#e8e7e5"/><stop offset="1" stop-color="#fff"/></linearGradient><path class="st7" d="M128.5 161.7h210.6l-4.1 41.1H133.5z"/><path class="st8" d="M234.7 161.7H128.5l5 41.1h101.2z"/></g></svg>